/* XPM */
static char * 8_xpm[] =
{ "16 16 4 1"
, "  c None"
, ". c #fdf6e3"
, "+ c #fdf6e3"
, "@ c #268bd2"
, "                "
, "      ....      "
, "    ........    "
, "    .      .    "
, "    .   @  .    "
, "    .   @  .    "
, "    .  @@  .    "
, "    .  @@  .    "
, "    . @@@@ .    "
, "    .++@@++.    "
, "    .++@@++.    "
, "    .++@+++.    "
, "    .++@+++.    "
, "    .++++++.    "
, "     ......     "
, "                "
};
