/* XPM */
static char * on_xpm[] =
{ "16 16 2 1"
, "  c none"
, ". c #fdf6e3"
, "                "
, " .              "
, "  .   ....      "
, "   . ......     "
, "  . .......  .  "
, "  .  ......  .  "
, "  .  ......  .  "
, "  .   ....   .  "
, "   .     .  .   "
, "    ........    "
, "       ..  .    "
, "       ..   .   "
, "       ..    .  "
, "     ......   . "
, "                "
, "                "
};
