/* XPM */
static char * tx_xpm[] =
{ "16 16 2 1"
, "  c none"
, ". c #fdf6e3"
, "                "
, "                "
, "       ..       "
, "      ....      "
, "     ......     "
, "    ........    "
, "   ..........   "
, "  ............  "
, "     ......     "
, "     ......     "
, "     ......     "
, "     ......     "
, "     ......     "
, "     ......     "
, "                "
, "                "
};
