/* XPM */
static char * 8_xpm[] =
{ "16 16 2 1"
, "  c none"
, ". c #fdf6e3"
, "       ..       "
, "       ..       "
, " ..          .. "
, " ... ...... ... "
, "  . ..    .. .  "
, "   ..      ..   "
, "   .        .   "
, ".. .        . .."
, ".. .        . .."
, "   .        .   "
, "   ..      ..   "
, "  . ..    .. .  "
, " ... ...... ... "
, " ..          .. "
, "       ..       "
, "       ..       "
};
