/* XPM */
static char * 8_xpm[] =
{ "16 16 3 1"
, "  c none"
, ". c #fdf6e3"
, "+ c #fdf6e3"
, "       ..       "
, "       ..       "
, " ..          .. "
, " ... ...... ... "
, "  . ..    .. .  "
, "   ..      ..   "
, "   .        .   "
, ".. .++++++++. .."
, ".. .++++++++. .."
, "   .++++++++.   "
, "   ..++++++..   "
, "  . ..++++.. .  "
, " ... ...... ... "
, " ..          .. "
, "       ..       "
, "       ..       "
};
